<svg width="34" height="34" viewBox="0 0 34 34" fill="none" xmlns="http://www.w3.org/2000/svg">
<path d="M29.9369 23.4905L23.1198 16.6734C24.1777 15.3058 24.7499 13.6337 24.7499 11.875C24.7499 9.76972 23.9283 7.79573 22.4426 6.30736C20.9568 4.819 18.9776 4 16.875 4C14.7723 4 12.7931 4.82162 11.3074 6.30736C9.819 7.79311 9 9.76972 9 11.875C9 13.9776 9.82162 15.9568 11.3074 17.4426C12.7931 18.9309 14.7697 19.7499 16.875 19.7499C18.6337 19.7499 20.3032 19.1777 21.6708 18.1224L28.4879 24.9369C28.5079 24.9569 28.5316 24.9728 28.5578 24.9836C28.5839 24.9944 28.6119 25 28.6402 25C28.6684 25 28.6964 24.9944 28.7226 24.9836C28.7487 24.9728 28.7724 24.9569 28.7924 24.9369L29.9369 23.795C29.9569 23.775 29.9728 23.7513 29.9836 23.7252C29.9944 23.6991 30 23.6711 30 23.6428C30 23.6145 29.9944 23.5865 29.9836 23.5604C29.9728 23.5343 29.9569 23.5105 29.9369 23.4905ZM21.0329 16.0329C19.92 17.1433 18.4447 17.7549 16.875 17.7549C15.3052 17.7549 13.83 17.1433 12.717 16.0329C11.6066 14.92 10.995 13.4447 10.995 11.875C10.995 10.3052 11.6066 8.82735 12.717 7.71698C13.83 6.60661 15.3052 5.99499 16.875 5.99499C18.4447 5.99499 19.9226 6.60399 21.0329 7.71698C22.1433 8.82998 22.7549 10.3052 22.7549 11.875C22.7549 13.4447 22.1433 14.9226 21.0329 16.0329Z" fill="#C6C6C6"/>
</svg>
